<?xml version="1.0" standalone="no"?>
<!DOCTYPE svg PUBLIC "-//W3C//DTD SVG 20010904//EN"
 "http://www.w3.org/TR/2001/REC-SVG-20010904/DTD/svg10.dtd">
<svg version="1.0" xmlns="http://www.w3.org/2000/svg"
 width="192.000000pt" height="177.000000pt" viewBox="0 0 192.000000 177.000000"
 preserveAspectRatio="xMidYMid meet">

<g transform="translate(0.000000,177.000000) scale(0.100000,-0.100000)"
fill="#000000" stroke="none">
<path d="M577 1549 c-9 -5 -26 -28 -37 -50 l-20 -39 -81 0 c-72 0 -82 -3 -104
-25 l-25 -24 0 -551 0 -552 29 -29 29 -29 592 0 592 0 29 29 29 29 0 550 0
549 -25 27 c-22 24 -30 26 -105 26 -78 0 -81 1 -92 28 -21 48 -49 72 -85 72
-51 0 -91 -25 -101 -63 -8 -32 -9 -32 -74 -35 l-66 -3 -12 36 c-14 44 -44 65
-90 65 -46 0 -76 -21 -90 -65 l-12 -35 -64 0 c-53 0 -66 3 -70 18 -13 40 -28
60 -51 71 -30 14 -72 14 -96 0z m93 -49 c29 -29 25 -38 -17 -42 -27 -2 -39 -8
-41 -20 -3 -16 8 -18 121 -18 l125 0 7 -27 c12 -50 65 -90 100 -77 24 9 18 33
-10 40 -76 19 -71 164 5 164 20 0 60 -33 60 -49 0 -6 -17 -11 -37 -13 -26 -2
-38 -8 -38 -18 0 -12 21 -15 121 -18 l121 -3 16 -40 c12 -29 25 -43 52 -55 20
-8 40 -12 45 -9 19 12 10 35 -15 41 -79 20 -71 164 9 164 27 0 59 -26 53 -44
-2 -6 -19 -13 -38 -16 -21 -3 -34 -11 -34 -20 0 -12 23 -15 134 -18 79 -1 140
-7 148 -14 9 -7 13 -37 13 -94 l0 -84 -610 0 -610 0 0 83 c0 51 5 88 12 95 7
7 42 12 89 12 77 0 77 0 84 -29 10 -49 73 -91 104 -72 12 8 12 12 2 25 -8 9
-18 16 -24 16 -46 0 -65 102 -27 140 11 11 29 20 40 20 11 0 29 -9 40 -20z
m900 -605 l0 -295 -61 0 c-33 0 -69 -5 -81 -11 -27 -14 -48 -69 -48 -124 l0
-45 -515 0 -515 0 0 385 0 385 610 0 610 0 0 -295z m-40 -342 c0 -13 -84 -93
-97 -93 -18 0 -16 51 3 78 11 16 25 22 55 22 21 0 39 -3 39 -7z m40 -132 c0
-92 -2 -101 -22 -115 -20 -14 -92 -16 -588 -16 -616 0 -610 -1 -610 56 l0 24
528 0 528 0 74 75 c41 41 78 75 82 75 5 0 8 -45 8 -99z"/>
<path d="M793 999 l-183 -101 0 -124 c0 -117 -1 -124 -20 -124 -13 0 -20 -7
-20 -20 0 -19 5 -21 62 -18 67 3 87 21 44 38 -25 9 -26 12 -26 100 0 52 4 90
10 90 5 0 30 -10 55 -22 l45 -22 0 -116 c0 -135 2 -140 90 -161 107 -25 277
-12 338 27 21 14 22 21 22 132 l0 117 70 38 c46 24 70 43 70 55 0 12 -55 47
-180 115 -99 53 -183 97 -187 96 -5 0 -90 -45 -190 -100z m348 -30 c82 -45
148 -83 147 -84 -6 -5 -301 -165 -304 -165 -12 0 -244 134 -244 141 0 5 59 9
131 9 119 0 130 2 127 18 -3 15 -20 18 -138 22 l-134 5 125 67 c68 37 128 68
132 68 5 0 76 -37 158 -81z m-239 -254 l83 -44 81 44 c45 25 87 45 93 45 8 0
11 -28 9 -92 l-3 -92 -50 -13 c-58 -16 -244 -12 -287 5 -28 11 -28 13 -28 102
0 55 4 90 10 90 6 0 47 -20 92 -45z"/>
</g>
</svg>
